<?xml version="1.0" encoding="UTF-8" standalone="no"?><svg xmlns="http://www.w3.org/2000/svg" xmlns:xlink="http://www.w3.org/1999/xlink" contentScriptType="application/ecmascript" contentStyleType="text/css" height="327px" preserveAspectRatio="none" style="width:209px;height:327px;" version="1.1" viewBox="0 0 209 327" width="209px" zoomAndPan="magnify"><defs><filter height="300%" id="f1rq7rx8epiv8k" width="300%" x="-1" y="-1"><feGaussianBlur result="blurOut" stdDeviation="2.0"/><feColorMatrix in="blurOut" result="blurOut2" type="matrix" values="0 0 0 0 0 0 0 0 0 0 0 0 0 0 0 0 0 0 .4 0"/><feOffset dx="4.0" dy="4.0" in="blurOut2" result="blurOut3"/><feBlend in="SourceGraphic" in2="blurOut3" mode="normal"/></filter></defs><g><!--MD5=[c3dd7293d4e74cc67bec6d68663a773e]
entity p1--><ellipse cx="45.5" cy="155" fill="#FEFECE" filter="url(#f1rq7rx8epiv8k)" rx="8" ry="8" style="stroke:#A80036;stroke-width:1.5;"/><path d="M45.5,163 L45.5,190 M32.5,171 L58.5,171 M45.5,190 L32.5,205 M45.5,190 L58.5,205 " fill="none" filter="url(#f1rq7rx8epiv8k)" style="stroke:#A80036;stroke-width:1.5;"/><text fill="#000000" font-family="sans-serif" font-size="14" lengthAdjust="spacingAndGlyphs" textLength="79" x="6" y="223.4951">Programmer</text><!--MD5=[dc7fb56487618d91d540ed1a4700aa4b]
entity pm--><ellipse cx="150.5" cy="14" fill="#FEFECE" filter="url(#f1rq7rx8epiv8k)" rx="8" ry="8" style="stroke:#A80036;stroke-width:1.5;"/><path d="M150.5,22 L150.5,49 M137.5,30 L163.5,30 M150.5,49 L137.5,64 M150.5,49 L163.5,64 " fill="none" filter="url(#f1rq7rx8epiv8k)" style="stroke:#A80036;stroke-width:1.5;"/><text fill="#000000" font-family="sans-serif" font-size="14" lengthAdjust="spacingAndGlyphs" textLength="103" x="99" y="82.4951">Project Manager</text><ellipse cx="97.7487" cy="301.0236" fill="#FEFECE" filter="url(#f1rq7rx8epiv8k)" rx="27.7487" ry="14.5236" style="stroke:#A80036;stroke-width:1.5;"/><text fill="#000000" font-family="sans-serif" font-size="14" lengthAdjust="spacingAndGlyphs" textLength="23" x="86.2487" y="303.8703">VCS</text><ellipse cx="150.5772" cy="186.0236" fill="#FEFECE" filter="url(#f1rq7rx8epiv8k)" rx="30.5772" ry="14.5236" style="stroke:#A80036;stroke-width:1.5;"/><text fill="#000000" font-family="sans-serif" font-size="14" lengthAdjust="spacingAndGlyphs" textLength="27" x="137.0772" y="188.8703">PMS</text><!--MD5=[8f1576b8d2c310c96fe1a188a3e6f563]
link p1 to vcs--><path d="M63.69,226.52 C72.37,245.39 82.34,267.05 89.19,281.93 " fill="none" id="p1-to-vcs" style="stroke:#A80036;stroke-width:1.0;"/><polygon fill="#A80036" points="91.38,286.71,91.2344,276.8622,89.282,282.1715,83.9728,280.219,91.38,286.71" style="stroke:#A80036;stroke-width:1.0;"/><!--MD5=[9cc976106f5ac0cf365fc9dee2326263]
link pm to pms--><path d="M150.5,85.83 C150.5,112.2 150.5,145.57 150.5,166.1 " fill="none" id="pm-to-pms" style="stroke:#A80036;stroke-width:1.0;"/><polygon fill="#A80036" points="150.5,171.28,154.5,162.28,150.5,166.28,146.5,162.28,150.5,171.28" style="stroke:#A80036;stroke-width:1.0;"/><!--MD5=[e77d8248fc555e58c102c691f4d91b49]
link pms to vcs--><path d="M144.21,200.41 C134.69,220.71 116.59,259.29 105.94,282.02 " fill="none" id="pms-to-vcs" style="stroke:#A80036;stroke-width:1.0;"/><polygon fill="#A80036" points="103.78,286.61,111.2285,280.1664,105.9069,282.0849,103.9884,276.7633,103.78,286.61" style="stroke:#A80036;stroke-width:1.0;"/><!--MD5=[dd1204b5d793ee8a2970e3f0b143a08e]
@startuml
actor Programmer as p1
actor "Project Manager" as pm
(VCS) as vcs
(PMS) as pms

p1 - -> vcs
pm - -> pms
pms - -> vcs
@enduml

PlantUML version 1.2020.23(Sun Dec 13 19:14:58 GMT 2020)
(GPL source distribution)
Java Runtime: OpenJDK Runtime Environment
JVM: OpenJDK 64-Bit Server VM
Default Encoding: UTF-8
Language: en
Country: US
--></g></svg>