<?xml version="1.0" encoding="UTF-8" standalone="no"?><svg xmlns="http://www.w3.org/2000/svg" xmlns:xlink="http://www.w3.org/1999/xlink" contentScriptType="application/ecmascript" contentStyleType="text/css" height="418px" preserveAspectRatio="none" style="width:230px;height:418px;" version="1.1" viewBox="0 0 230 418" width="230px" zoomAndPan="magnify"><defs><filter height="300%" id="ftdwuae8qnncj" width="300%" x="-1" y="-1"><feGaussianBlur result="blurOut" stdDeviation="2.0"/><feColorMatrix in="blurOut" result="blurOut2" type="matrix" values="0 0 0 0 0 0 0 0 0 0 0 0 0 0 0 0 0 0 .4 0"/><feOffset dx="4.0" dy="4.0" in="blurOut2" result="blurOut3"/><feBlend in="SourceGraphic" in2="blurOut3" mode="normal"/></filter></defs><g><!--MD5=[dc7fb56487618d91d540ed1a4700aa4b]
entity pm--><ellipse cx="71.5" cy="14" fill="#FEFECE" filter="url(#ftdwuae8qnncj)" rx="8" ry="8" style="stroke:#A80036;stroke-width:1.5;"/><path d="M71.5,22 L71.5,49 M58.5,30 L84.5,30 M71.5,49 L58.5,64 M71.5,49 L84.5,64 " fill="none" filter="url(#ftdwuae8qnncj)" style="stroke:#A80036;stroke-width:1.5;"/><text fill="#000000" font-family="sans-serif" font-size="14" lengthAdjust="spacingAndGlyphs" textLength="103" x="20" y="82.4951">Project Manager</text><!--MD5=[c3dd7293d4e74cc67bec6d68663a773e]
entity p1--><ellipse cx="183.5" cy="155" fill="#FEFECE" filter="url(#ftdwuae8qnncj)" rx="8" ry="8" style="stroke:#A80036;stroke-width:1.5;"/><path d="M183.5,163 L183.5,190 M170.5,171 L196.5,171 M183.5,190 L170.5,205 M183.5,190 L196.5,205 " fill="none" filter="url(#ftdwuae8qnncj)" style="stroke:#A80036;stroke-width:1.5;"/><text fill="#000000" font-family="sans-serif" font-size="14" lengthAdjust="spacingAndGlyphs" textLength="79" x="144" y="223.4951">Programmer</text><ellipse cx="71.5772" cy="186.0236" fill="#FEFECE" filter="url(#ftdwuae8qnncj)" rx="30.5772" ry="14.5236" style="stroke:#A80036;stroke-width:1.5;"/><text fill="#000000" font-family="sans-serif" font-size="14" lengthAdjust="spacingAndGlyphs" textLength="27" x="58.0772" y="188.8703">PMS</text><ellipse cx="130.7487" cy="392.0236" fill="#FEFECE" filter="url(#ftdwuae8qnncj)" rx="27.7487" ry="14.5236" style="stroke:#A80036;stroke-width:1.5;"/><text fill="#000000" font-family="sans-serif" font-size="14" lengthAdjust="spacingAndGlyphs" textLength="23" x="119.2487" y="394.8703">VCS</text><ellipse cx="71.42" cy="301.984" fill="#FEFECE" filter="url(#ftdwuae8qnncj)" rx="65.42" ry="15.484" style="stroke:#A80036;stroke-width:1.5;"/><text fill="#000000" font-family="sans-serif" font-size="14" lengthAdjust="spacingAndGlyphs" textLength="80" x="28.42" y="305.7316">Pull Request</text><!--MD5=[9cc976106f5ac0cf365fc9dee2326263]
link pm to pms--><path d="M71.5,85.83 C71.5,112.2 71.5,145.57 71.5,166.1 " fill="none" id="pm-to-pms" style="stroke:#A80036;stroke-width:1.0;"/><polygon fill="#A80036" points="71.5,171.28,75.5,162.28,71.5,166.28,67.5,162.28,71.5,171.28" style="stroke:#A80036;stroke-width:1.0;"/><!--MD5=[8a467343074b48e15b59de8cb93f678d]
link pms to Pull Request--><path d="M71.5,200.52 C71.5,220.51 71.5,258.05 71.5,281.15 " fill="none" id="pms-to-Pull Request" style="stroke:#A80036;stroke-width:1.0;"/><polygon fill="#A80036" points="71.5,286.42,75.5,277.42,71.5,281.42,67.5,277.42,71.5,286.42" style="stroke:#A80036;stroke-width:1.0;"/><!--MD5=[a5a4e2a0b59e8a769ffa1cca2e08c681]
link Pull Request to vcs--><path d="M81.24,317.53 C91.59,332.97 107.95,357.37 118.95,373.77 " fill="none" id="Pull Request-to-vcs" style="stroke:#A80036;stroke-width:1.0;"/><polygon fill="#A80036" points="121.9,378.17,120.1974,368.4694,119.11,374.0208,113.5587,372.9334,121.9,378.17" style="stroke:#A80036;stroke-width:1.0;"/><!--MD5=[db0b440d73a3344f597fb8af9ec861e4]
link p1 to Pull Request--><path d="M144.64,226.55 C125.77,245.76 104.03,267.89 89.18,283 " fill="none" id="p1-to-Pull Request" style="stroke:#A80036;stroke-width:1.0;"/><polygon fill="#A80036" points="85.56,286.69,94.7236,283.0805,89.0669,283.1261,89.0213,277.4694,85.56,286.69" style="stroke:#A80036;stroke-width:1.0;"/><!--MD5=[8f1576b8d2c310c96fe1a188a3e6f563]
link p1 to vcs--><path d="M175.73,226.65 C170.38,252.64 162.77,287.28 154.5,317.5 C149.28,336.58 142.12,358.04 136.98,372.83 " fill="none" id="p1-to-vcs" style="stroke:#A80036;stroke-width:1.0;"/><polygon fill="#A80036" points="135.32,377.57,142.0783,370.4058,136.9781,372.8529,134.531,367.7528,135.32,377.57" style="stroke:#A80036;stroke-width:1.0;"/><!--MD5=[93a00400a0e40a96c87c047e94f527c9]
@startuml
actor "Project Manager" as pm
actor Programmer as p1
(PMS) as pms
(VCS) as vcs

pm - -> pms
pms - -> (Pull Request)
(Pull Request) - -> vcs
p1 - -> (Pull Request)
p1 - -> vcs

@enduml

PlantUML version 1.2020.23(Sun Dec 13 19:14:58 GMT 2020)
(GPL source distribution)
Java Runtime: OpenJDK Runtime Environment
JVM: OpenJDK 64-Bit Server VM
Default Encoding: UTF-8
Language: en
Country: US
--></g></svg>