<?xml version="1.0" encoding="UTF-8" standalone="no"?><svg xmlns="http://www.w3.org/2000/svg" xmlns:xlink="http://www.w3.org/1999/xlink" contentScriptType="application/ecmascript" contentStyleType="text/css" height="327px" preserveAspectRatio="none" style="width:218px;height:327px;" version="1.1" viewBox="0 0 218 327" width="218px" zoomAndPan="magnify"><defs><filter height="300%" id="f1grb5asefk79k" width="300%" x="-1" y="-1"><feGaussianBlur result="blurOut" stdDeviation="2.0"/><feColorMatrix in="blurOut" result="blurOut2" type="matrix" values="0 0 0 0 0 0 0 0 0 0 0 0 0 0 0 0 0 0 .4 0"/><feOffset dx="4.0" dy="4.0" in="blurOut2" result="blurOut3"/><feBlend in="SourceGraphic" in2="blurOut3" mode="normal"/></filter></defs><g><!--MD5=[c3dd7293d4e74cc67bec6d68663a773e]
entity p1--><ellipse cx="45.5" cy="14" fill="#FEFECE" filter="url(#f1grb5asefk79k)" rx="8" ry="8" style="stroke:#A80036;stroke-width:1.5;"/><path d="M45.5,22 L45.5,49 M32.5,30 L58.5,30 M45.5,49 L32.5,64 M45.5,49 L58.5,64 " fill="none" filter="url(#f1grb5asefk79k)" style="stroke:#A80036;stroke-width:1.5;"/><text fill="#000000" font-family="sans-serif" font-size="14" lengthAdjust="spacingAndGlyphs" textLength="79" x="6" y="82.4951">Programmer</text><!--MD5=[dc7fb56487618d91d540ed1a4700aa4b]
entity pm--><ellipse cx="159.5" cy="155" fill="#FEFECE" filter="url(#f1grb5asefk79k)" rx="8" ry="8" style="stroke:#A80036;stroke-width:1.5;"/><path d="M159.5,163 L159.5,190 M146.5,171 L172.5,171 M159.5,190 L146.5,205 M159.5,190 L172.5,205 " fill="none" filter="url(#f1grb5asefk79k)" style="stroke:#A80036;stroke-width:1.5;"/><text fill="#000000" font-family="sans-serif" font-size="14" lengthAdjust="spacingAndGlyphs" textLength="103" x="108" y="223.4951">Project Manager</text><ellipse cx="45.7487" cy="186.0236" fill="#FEFECE" filter="url(#f1grb5asefk79k)" rx="27.7487" ry="14.5236" style="stroke:#A80036;stroke-width:1.5;"/><text fill="#000000" font-family="sans-serif" font-size="14" lengthAdjust="spacingAndGlyphs" textLength="23" x="34.2487" y="188.8703">VCS</text><ellipse cx="102.5772" cy="301.0236" fill="#FEFECE" filter="url(#f1grb5asefk79k)" rx="30.5772" ry="14.5236" style="stroke:#A80036;stroke-width:1.5;"/><text fill="#000000" font-family="sans-serif" font-size="14" lengthAdjust="spacingAndGlyphs" textLength="27" x="89.0772" y="303.8703">PMS</text><!--MD5=[8f1576b8d2c310c96fe1a188a3e6f563]
link p1 to vcs--><path d="M45.5,85.83 C45.5,112.2 45.5,145.57 45.5,166.1 " fill="none" id="p1-to-vcs" style="stroke:#A80036;stroke-width:1.0;"/><polygon fill="#A80036" points="45.5,171.28,49.5,162.28,45.5,166.28,41.5,162.28,45.5,171.28" style="stroke:#A80036;stroke-width:1.0;"/><!--MD5=[2a04805dab69158b5894e4cd231feec3]
link vcs to pms--><path d="M52.26,200.41 C62.5,220.71 81.97,259.29 93.43,282.02 " fill="none" id="vcs-to-pms" style="stroke:#A80036;stroke-width:1.0;"/><polygon fill="#A80036" points="95.75,286.61,95.2651,276.7731,93.4968,282.1465,88.1235,280.3781,95.75,286.61" style="stroke:#A80036;stroke-width:1.0;"/><!--MD5=[9cc976106f5ac0cf365fc9dee2326263]
link pm to pms--><path d="M139.56,226.52 C130.05,245.39 119.12,267.05 111.61,281.93 " fill="none" id="pm-to-pms" style="stroke:#A80036;stroke-width:1.0;"/><polygon fill="#A80036" points="109.2,286.71,116.8106,280.4587,111.4418,282.2407,109.6598,276.8719,109.2,286.71" style="stroke:#A80036;stroke-width:1.0;"/><!--MD5=[264ce35e4b98b2615ac6040aaac0baff]
@startuml
actor Programmer as p1
actor "Project Manager" as pm
(VCS) as vcs
(PMS) as pms

p1 - -> vcs
vcs - -> pms
pm - -> pms
@enduml

PlantUML version 1.2020.23(Sun Dec 13 19:14:58 GMT 2020)
(GPL source distribution)
Java Runtime: OpenJDK Runtime Environment
JVM: OpenJDK 64-Bit Server VM
Default Encoding: UTF-8
Language: en
Country: US
--></g></svg>