<?xml version="1.0" encoding="UTF-8" standalone="no"?><svg xmlns="http://www.w3.org/2000/svg" xmlns:xlink="http://www.w3.org/1999/xlink" contentScriptType="application/ecmascript" contentStyleType="text/css" height="186px" preserveAspectRatio="none" style="width:206px;height:186px;" version="1.1" viewBox="0 0 206 186" width="206px" zoomAndPan="magnify"><defs><filter height="300%" id="f1aczrdrbt2tyz" width="300%" x="-1" y="-1"><feGaussianBlur result="blurOut" stdDeviation="2.0"/><feColorMatrix in="blurOut" result="blurOut2" type="matrix" values="0 0 0 0 0 0 0 0 0 0 0 0 0 0 0 0 0 0 .4 0"/><feOffset dx="4.0" dy="4.0" in="blurOut2" result="blurOut3"/><feBlend in="SourceGraphic" in2="blurOut3" mode="normal"/></filter></defs><g><!--MD5=[c3dd7293d4e74cc67bec6d68663a773e]
entity p1--><ellipse cx="45.5" cy="14" fill="#FEFECE" filter="url(#f1aczrdrbt2tyz)" rx="8" ry="8" style="stroke:#A80036;stroke-width:1.5;"/><path d="M45.5,22 L45.5,49 M32.5,30 L58.5,30 M45.5,49 L32.5,64 M45.5,49 L58.5,64 " fill="none" filter="url(#f1aczrdrbt2tyz)" style="stroke:#A80036;stroke-width:1.5;"/><text fill="#000000" font-family="sans-serif" font-size="14" lengthAdjust="spacingAndGlyphs" textLength="79" x="6" y="82.4951">Programmer</text><!--MD5=[f3929e065b321440b4eee273bd9781ea]
entity p2--><ellipse cx="159.5" cy="14" fill="#FEFECE" filter="url(#f1aczrdrbt2tyz)" rx="8" ry="8" style="stroke:#A80036;stroke-width:1.5;"/><path d="M159.5,22 L159.5,49 M146.5,30 L172.5,30 M159.5,49 L146.5,64 M159.5,49 L172.5,64 " fill="none" filter="url(#f1aczrdrbt2tyz)" style="stroke:#A80036;stroke-width:1.5;"/><text fill="#000000" font-family="sans-serif" font-size="14" lengthAdjust="spacingAndGlyphs" textLength="79" x="120" y="82.4951">Programmer</text><ellipse cx="102.7487" cy="160.0236" fill="#FEFECE" filter="url(#f1aczrdrbt2tyz)" rx="27.7487" ry="14.5236" style="stroke:#A80036;stroke-width:1.5;"/><text fill="#000000" font-family="sans-serif" font-size="14" lengthAdjust="spacingAndGlyphs" textLength="23" x="91.2487" y="162.8703">VCS</text><!--MD5=[8f1576b8d2c310c96fe1a188a3e6f563]
link p1 to vcs--><path d="M65.44,85.52 C74.95,104.39 85.88,126.05 93.39,140.93 " fill="none" id="p1-to-vcs" style="stroke:#A80036;stroke-width:1.0;"/><polygon fill="#A80036" points="95.8,145.71,95.3402,135.8719,93.5582,141.2407,88.1894,139.4587,95.8,145.71" style="stroke:#A80036;stroke-width:1.0;"/><!--MD5=[bda8244fc124058c8b0a1a151e170aa5]
link p2 to vcs--><path d="M139.56,85.52 C130.05,104.39 119.12,126.05 111.61,140.93 " fill="none" id="p2-to-vcs" style="stroke:#A80036;stroke-width:1.0;"/><polygon fill="#A80036" points="109.2,145.71,116.8106,139.4587,111.4418,141.2407,109.6598,135.8719,109.2,145.71" style="stroke:#A80036;stroke-width:1.0;"/><!--MD5=[f1d087b13d89ff5ce62ab4b860eab11d]
@startuml
actor Programmer as p1
actor Programmer as p2
(VCS) as vcs

p1 - -> vcs
p2 - -> vcs
@enduml

PlantUML version 1.2020.23(Sun Dec 13 19:14:58 GMT 2020)
(GPL source distribution)
Java Runtime: OpenJDK Runtime Environment
JVM: OpenJDK 64-Bit Server VM
Default Encoding: UTF-8
Language: en
Country: US
--></g></svg>